PathFileType	4	(X/Y/Z)	C:\Users\Basilio\Documents\Thesis Gigler\squatting_fais\c3dfiles\075\SLS_back_pre4\markers_experimental.trc
DataRate	CameraRate	NumFrames	NumMarkers	Units	OrigDataRate	OrigDataStartFrame	OrigNumFrames
200.000000	200.000000	4	61	mm	200.000000	1182	1351
Frame#	Time	FHD			LBHD			C7			T10			CLAV			LSHO			LUUPA			LMUPA			LDUPA			LLEP			LMEP			LRAD			LUL			LRFIN			RSHO			RUPA1			RMUPA			RDUPA			RLEP			RMEP			RRAD			RUL			RUFIN			LASI			RASI			USACR			LSACR			RSACR			LTHI1			LTHI2			LTHI3			LTHI4			LLFC			LMFC			LTIB1			LTIB2			LTIB3			LTIB4			LLMAL			LMMAL			LHEE			LMT1			LMT2			LMT5			RTHI			RTHI2			RTHI3			RTHI4			RLFC			RMFC			RTIB1			RTIB2			RTIB3			RTIB4			RLMAL			RMMAL			RHEE			RMT1			RMT2			RMT5			RBHD			
		X1	Y1	Z1	X2	Y2	Z2	X3	Y3	Z3	X4	Y4	Z4	X5	Y5	Z5	X6	Y6	Z6	X7	Y7	Z7	X8	Y8	Z8	X9	Y9	Z9	X10	Y10	Z10	X11	Y11	Z11	X12	Y12	Z12	X13	Y13	Z13	X14	Y14	Z14	X15	Y15	Z15	X16	Y16	Z16	X17	Y17	Z17	X18	Y18	Z18	X19	Y19	Z19	X20	Y20	Z20	X21	Y21	Z21	X22	Y22	Z22	X23	Y23	Z23	X24	Y24	Z24	X25	Y25	Z25	X26	Y26	Z26	X27	Y27	Z27	X28	Y28	Z28	X29	Y29	Z29	X30	Y30	Z30	X31	Y31	Z31	X32	Y32	Z32	X33	Y33	Z33	X34	Y34	Z34	X35	Y35	Z35	X36	Y36	Z36	X37	Y37	Z37	X38	Y38	Z38	X39	Y39	Z39	X40	Y40	Z40	X41	Y41	Z41	X42	Y42	Z42	X43	Y43	Z43	X44	Y44	Z44	X45	Y45	Z45	X46	Y46	Z46	X47	Y47	Z47	X48	Y48	Z48	X49	Y49	Z49	X50	Y50	Z50	X51	Y51	Z51	X52	Y52	Z52	X53	Y53	Z53	X54	Y54	Z54	X55	Y55	Z55	X56	Y56	Z56	X57	Y57	Z57	X58	Y58	Z58	X59	Y59	Z59	X60	Y60	Z60	X61	Y61	Z61	

1183	5.91	-259.2984313964844	1723.027221679688	-890.4125976562502	-379.3792419433594	1591.680419921875	-977.1694335937502	-423.6467895507814	1478.61181640625	-915.5320434570315	-427.3055725097657	1151.8095703125	-913.051940917969	-279.4278259277344	1422.586547851563	-906.5124511718752	-307.2683410644532	1448.395874023438	-1070.72705078125	-323.5168457031251	1252.04248046875	-1193.524536132813	-283.0160217285157	1228.035034179688	-1175.0859375	-307.9268188476563	1185.6728515625	-1211.448608398438	-281.1578369140626	1104.363037109375	-1209.005859375	-352.5335388183594	1086.905151367188	-1150.819458007813	-178.8917083740235	1085.447998046875	-975.7390136718752	-136.1639709472657	1039.997924804688	-1017.697875976563	-112.7276763916016	1083.0439453125	-919.2277832031252	-329.6474914550782	1442.16748046875	-744.9284057617189	-352.0956420898438	1242.8642578125	-629.9649047851564	-311.9458312988282	1216.882080078125	-642.6348876953126	-343.8666687011719	1174.159057617188	-613.1178588867189	-322.8896484375001	1105.072265625	-609.0217895507814	-376.5108337402344	1068.124755859375	-666.3176269531251	-164.2596893310547	1095.85791015625	-832.2720947265627	-140.8208465576172	1048.155639648438	-776.623718261719	-88.88578033447267	1081.458740234375	-878.5483398437502	-252.4132995605469	986.8458251953127	-1034.787231445313	-252.6550445556641	997.1084594726565	-781.2566528320315	-412.2118530273439	1051.037963867188	-912.6020507812502	-417.6021118164064	1019.019226074219	-939.2744140625002	-417.3279113769532	1020.975158691406	-882.402770996094	-293.9690856933594	742.8763427734376	-1108.321533203125	-260.2263183593751	664.7355346679689	-1108.260131835938	-214.9924774169922	671.7787475585939	-1091.354248046875	-287.1325683593751	611.3184814453126	-1099.885864257813	-293.6219482421876	502.5692443847657	-1091.990478515625	-250.4503479003907	485.721405029297	-969.1518554687502	-245.4060974121094	376.4681701660157	-1061.57275390625	-309.0653686523438	343.9363098144532	-1111.542724609375	-268.9478454589844	332.9826049804688	-1092.207763671875	-279.4399108886719	252.7346801757813	-1065.558959960938	-364.9171752929688	120.7196578979492	-1085.00634765625	-336.8009948730469	129.1664733886719	-1004.536926269531	-424.0201416015626	89.7894973754883	-1046.458984375	-219.2721862792969	50.88082122802736	-1011.769775390625	-214.1989440917969	53.94674682617189	-1060.761352539063	-251.9433746337891	41.10369491577149	-1114.880737304688	-310.4492797851563	792.3591308593752	-710.7670288085939	-270.7535400390626	740.3397216796876	-712.7149658203126	-240.1669311523438	746.8359375000001	-724.2649536132814	-296.2503356933594	658.3593750000001	-718.7739257812501	-307.5751037597657	504.482879638672	-744.4881591796876	-268.4337158203126	493.4655761718751	-868.6253051757815	-271.5997009277344	351.9894714355469	-806.758483886719	-330.6439819335938	281.8334655761719	-746.9675292968751	-295.6642456054688	271.9039001464844	-778.7566528320315	-310.9713439941407	228.2347106933594	-814.6047973632815	-390.7055053710939	117.9275970458985	-773.4359130859377	-362.6140136718751	138.2711181640625	-855.365417480469	-449.4349365234376	98.46330261230472	-826.7409667968752	-245.7030029296876	56.93672943115236	-837.3506469726565	-245.6198425292969	56.37263870239259	-794.9487304687502	-282.7470703125001	36.84875869750977	-742.2930908203126	-369.0941467285157	1632.4453125	-821.4695434570315	
1184	5.915	-259.5342712402344	1723.022705078125	-890.3377075195315	-379.6976928710938	1591.640991210938	-977.0445556640627	-423.8746032714845	1478.593383789063	-915.400817871094	-427.5622863769532	1151.839599609375	-912.9005126953127	-279.6315917968751	1422.52734375	-906.3091430664065	-307.4389343261719	1448.359008789063	-1070.582153320313	-323.8849487304688	1252.002807617188	-1193.372680664063	-283.3382568359376	1228.027099609375	-1174.938720703125	-308.2829589843751	1185.5810546875	-1211.30126953125	-281.6186523437501	1104.321655273438	-1208.856811523438	-353.2026367187501	1086.8974609375	-1150.721069335938	-179.6486206054688	1084.88330078125	-975.719909667969	-136.9401245117188	1039.7197265625	-1017.5927734375	-114.3101806640625	1082.825439453125	-919.3880004882815	-329.8164062500001	1442.227172851563	-744.7852783203126	-352.5400695800782	1242.988525390625	-629.7172241210939	-312.3591308593751	1216.914916992188	-642.4837646484376	-344.3752441406251	1174.25537109375	-612.8528442382814	-323.3491821289063	1105.141479492188	-608.7781982421876	-377.0525512695313	1068.200073242188	-666.1712646484376	-164.8834686279297	1095.576049804688	-832.135192871094	-141.508773803711	1047.942016601563	-776.4439697265627	-89.53743743896486	1081.091552734375	-878.4012451171877	-252.7030029296876	986.8637695312502	-1034.618041992188	-252.9645233154297	997.0886840820315	-780.9997558593752	-412.4692382812501	1051.014038085938	-912.4641723632815	-417.8845214843751	1019.003234863281	-939.1235961914065	-417.5901794433595	1020.956604003906	-882.2312622070315	-294.2183837890626	742.8326416015626	-1108.24072265625	-260.4406738281251	664.7324829101564	-1108.131591796875	-214.9875946044922	671.7103271484376	-1091.10693359375	-287.3576354980469	611.3940429687501	-1099.74658203125	-293.7333679199219	502.5877990722657	-1091.90478515625	-250.6721954345704	485.7335510253907	-969.0338134765627	-245.5823059082032	376.5014038085938	-1061.500610351563	-309.1824951171876	343.9920654296876	-1111.4638671875	-268.9744567871094	333.0730590820313	-1092.150512695313	-279.5441894531251	252.7949371337891	-1065.5029296875	-364.9804992675782	120.7541580200196	-1084.990966796875	-336.8062133789063	129.1597747802735	-1004.515625	-424.0420532226564	89.83492279052736	-1046.444946289063	-219.3051300048829	50.86344146728517	-1011.784729003906	-214.2025756835938	53.92200088500978	-1060.751098632813	-251.9057159423829	41.08884429931641	-1114.827392578125	-310.6018676757813	792.3005371093752	-710.6007690429689	-270.8666687011719	740.2964477539064	-712.4975585937501	-240.2863922119141	746.8287353515626	-724.0418090820314	-296.3040161132813	658.2986450195314	-718.6149902343751	-307.5568542480469	504.4778747558595	-744.4016113281251	-268.4318847656251	493.394256591797	-868.5376586914065	-271.5568237304688	351.9765930175782	-806.6582031250002	-330.6657104492188	281.8191528320313	-746.9304199218751	-295.7802734375001	271.9308166503907	-778.7478027343752	-310.9237670898438	228.2019348144532	-814.4919433593752	-390.6643066406251	117.916976928711	-773.402038574219	-362.5202331542969	138.2608947753907	-855.2729492187502	-449.4206542968751	98.443962097168	-826.751159667969	-245.7692260742188	56.95737838745119	-837.3828735351565	-245.6454010009766	56.42782211303712	-794.9624023437502	-282.7562866210938	36.86701202392579	-742.3004150390626	-369.3448486328126	1632.445678710938	-821.3020019531252	
1185	5.92	-259.8992614746094	1723.03271484375	-890.349548339844	-379.9371643066407	1591.669555664063	-976.977722167969	-423.9588012695314	1478.588134765625	-915.272155761719	-427.8645935058595	1151.839477539063	-912.7113037109377	-279.3718566894532	1422.431640625	-905.867858886719	-307.5880737304688	1448.313720703125	-1070.457397460938	-324.1914672851563	1251.998901367188	-1193.273315429688	-283.8762817382813	1228.0009765625	-1174.923217773438	-308.5511169433594	1185.511596679688	-1211.161376953125	-282.1372375488282	1104.231079101563	-1208.81005859375	-353.8653869628907	1086.991577148438	-1150.694213867188	-180.2528533935547	1084.63427734375	-975.5272216796877	-137.6373748779297	1039.363159179688	-1017.443359375	-114.2233581542969	1082.470458984375	-919.028503417969	-330.0217590332032	1442.246704101563	-744.6070556640626	-352.9060668945313	1243.033447265625	-629.5017089843751	-312.7008361816407	1216.970703125	-642.2244262695314	-344.7472229003907	1174.336791992188	-612.6194458007814	-323.8218688964844	1105.203857421875	-608.5541381835939	-377.6986083984376	1068.2880859375	-665.8529052734376	-165.4428405761719	1095.355102539063	-831.9273681640627	-142.1607055664063	1047.679321289063	-776.3193359375002	-90.24815368652345	1080.757446289063	-878.221130371094	-253.7413330078126	987.1060791015627	-1034.7236328125	-253.1922302246094	997.1377563476565	-780.8240356445315	-412.614959716797	1051.008544921875	-912.378845214844	-418.1311950683595	1018.954528808594	-938.8918457031252	-417.769256591797	1020.880126953125	-882.1362915039065	-294.3529357910157	742.9115600585939	-1108.057373046875	-260.4120483398438	664.7094726562501	-1107.964111328125	-215.2919616699219	671.7911987304689	-1091.037353515625	-287.4591369628907	611.3897094726564	-1099.613037109375	-294.0056457519532	502.629852294922	-1091.794311523438	-250.9222869873047	485.6333618164064	-968.9246215820315	-245.7256164550782	376.5579223632813	-1061.4658203125	-309.3750000000001	343.9293212890626	-1111.416625976563	-269.1266479492188	333.1265869140626	-1092.093139648438	-279.5816345214844	252.7776336669922	-1065.462890625	-365.0917968750001	120.7679061889649	-1084.98779296875	-336.9181518554688	129.0780181884766	-1004.529418945313	-424.0557556152345	89.81712341308595	-1046.470336914063	-219.3356170654297	50.85856246948244	-1011.763061523438	-214.2153472900391	53.92513275146486	-1060.791137695313	-251.9080810546876	41.07933425903321	-1114.85693359375	-310.7486877441407	792.2420043945315	-710.4622802734376	-270.9851989746094	740.2741699218751	-712.5558471679689	-240.3839721679688	746.8223876953126	-723.9333496093751	-296.3833007812501	658.2467651367189	-718.5281372070314	-307.5659790039063	504.4368286132814	-744.2497558593751	-268.4228820800782	493.4515380859376	-868.4685668945315	-271.5652770996094	351.9094848632813	-806.5869750976565	-330.6154785156251	281.7383117675782	-746.8424072265626	-295.7514038085938	271.8415222167969	-778.668151855469	-310.9810180664063	228.1473388671876	-814.470397949219	-390.6645507812501	117.8941802978516	-773.4041748046877	-362.5117492675782	138.2474670410157	-855.3129882812502	-449.4375000000001	98.44538116455081	-826.7459716796877	-245.7599639892579	56.9377899169922	-837.4204101562502	-245.6078643798829	56.3761672973633	-794.9345703125002	-282.7253723144532	36.83369445800782	-742.3355712890626	-369.6095581054688	1632.42919921875	-821.1125488281252	
1186	5.925	-260.1385192871094	1723.0654296875	-890.2835693359377	-380.0537719726563	1591.509399414063	-976.8610839843752	-424.1694641113282	1478.5322265625	-915.1565551757815	-428.0943908691407	1151.856689453125	-912.4769287109377	-279.5631408691407	1422.413818359375	-905.762878417969	-307.8580932617188	1448.26123046875	-1070.367065429688	-324.4788818359376	1251.904418945313	-1193.151000976563	-284.3028869628907	1227.921508789063	-1174.766845703125	-308.9778747558594	1185.47314453125	-1211.0263671875	-282.5885925292969	1104.199584960938	-1208.792236328125	-354.4494934082032	1087.033203125	-1150.635620117188	-180.8180084228516	1084.451171875	-975.3743286132815	-138.2442932128907	1039.096313476563	-1017.238159179688	-115.3751449584961	1082.19140625	-918.9566650390627	-330.2027587890626	1442.291625976563	-744.4205322265626	-353.2630004882813	1243.161010742188	-629.3016967773439	-313.1531066894532	1216.909790039063	-642.0825195312501	-345.1629638671876	1174.44189453125	-612.3351440429689	-324.3071899414063	1105.225830078125	-608.3115234375001	-378.3312377929688	1068.392578125	-665.6344604492189	-166.1988983154297	1095.1337890625	-831.8577270507815	-142.7543487548828	1047.448364257813	-776.1236572265627	-90.81462860107423	1080.338745117188	-878.037292480469	-253.1840972900391	986.913024902344	-1034.300537109375	-253.3871459960938	997.126892089844	-780.6772460937502	-412.8178710937501	1050.944580078125	-912.2620849609377	-418.3790588378907	1018.885864257813	-938.7212524414065	-418.0652160644532	1020.811218261719	-881.9021606445315	-294.5791015625001	742.9608764648439	-1107.970703125	-261.7663574218751	665.1537475585939	-1108.346557617188	-215.1937103271485	671.7562255859376	-1090.85107421875	-287.6268615722657	611.4490356445314	-1099.533081054688	-294.0992736816407	502.642547607422	-1091.709350585938	-251.1071319580079	485.6635742187501	-968.811462402344	-245.9075775146485	376.5317687988282	-1061.373413085938	-309.4067382812501	343.9844970703126	-1111.366455078125	-269.0938415527344	333.1736450195313	-1091.992431640625	-279.6925048828126	252.8067932128907	-1065.396606445313	-365.0289916992188	120.7294006347657	-1084.974609375	-336.9153137207032	129.0812072753907	-1004.488891601563	-424.0557556152345	89.80800628662111	-1046.449462890625	-219.3905792236329	50.88740539550783	-1011.8125	-214.2505035400391	53.93386840820314	-1060.74072265625	-251.9824676513672	41.13267898559571	-1114.87353515625	-310.8829040527344	792.1977539062502	-710.3356933593751	-271.0558471679688	740.2675170898439	-712.1784667968751	-240.5019683837891	746.7782592773439	-723.7880249023439	-296.4276733398438	658.1916503906251	-718.3441772460939	-307.5566711425782	504.3818969726564	-744.1500244140626	-268.1658630371094	493.3605041503907	-868.2758789062502	-271.6139221191407	351.8772583007813	-806.568542480469	-330.6182861328126	281.6860656738282	-746.7993164062501	-295.7559204101563	271.8295593261719	-778.6029052734377	-310.9997863769532	228.1715698242188	-814.474792480469	-390.678924560547	117.8868942260742	-773.3590087890627	-362.4794616699219	138.2366943359375	-855.2423095703127	-449.4128723144532	98.43016052246097	-826.7542724609377	-245.7895202636719	56.93695068359376	-837.396179199219	-245.5955047607422	56.46530532836915	-794.934265136719	-282.7645263671876	36.81798553466798	-742.3419799804689	-369.8833312988282	1632.39892578125	-820.9107666015627	
